<?xml version="1.0" encoding="UTF-8"?>
<svg version="1.1" xmlns="http://www.w3.org/2000/svg" width="512" height="512">
<path d="M0 0 C0.86757935 0.00304138 1.73515869 0.00608276 2.62902832 0.00921631 C55.06611222 0.27983294 102.87921667 22.01609508 139.76904297 58.89355469 C165.18685074 84.81147121 181.33611378 118.28897367 189.3125 153.4375 C189.47766113 154.12021973 189.64282227 154.80293945 189.81298828 155.50634766 C195.65543529 180.41680168 194.08765217 209.73294602 188.3125 234.4375 C188.13058105 235.25057617 187.94866211 236.06365234 187.76123047 236.90136719 C182.66056951 259.33698225 174.00738977 280.63909013 164.3125 301.4375 C163.88098633 302.36385254 163.44947266 303.29020508 163.00488281 304.24462891 C150.45860806 330.86592617 134.89397465 357.3511807 117.21484375 380.8984375 C115.38703791 383.33801408 113.62070157 385.81521301 111.86450195 388.30664062 C105.58609926 397.20052918 98.97938271 405.83268922 92.3125 414.4375 C91.58281006 415.38206055 91.58281006 415.38206055 90.83837891 416.34570312 C85.0449759 423.83527356 79.08515752 431.1497435 72.93359375 438.34765625 C70.48946666 441.21327694 68.11554266 444.13155522 65.75 447.0625 C61.87437067 451.82557218 57.80015711 456.37114249 53.64453125 460.890625 C51.68844748 463.02691749 49.77062303 465.18530657 47.875 467.375 C43.12815384 472.82671427 38.2241335 478.13464832 33.3125 483.4375 C32.72871582 484.06785156 32.14493164 484.69820313 31.54345703 485.34765625 C24.95549875 492.44799199 18.33209577 499.5082342 11.5 506.375 C11.00250244 506.87708984 10.50500488 507.37917969 9.99243164 507.89648438 C6.77053126 511.10420635 5.26600221 512.30598245 0.6875 512.9375 C-5.12383906 512.7821166 -7.79494001 509.41628759 -11.6875 505.4375 C-12.88365924 504.26123102 -14.08174808 503.08692259 -15.28125 501.9140625 C-21.13231112 496.16198686 -26.92017305 490.39678496 -32.21875 484.125 C-33.80012969 482.30809567 -35.46947196 480.6253872 -37.1875 478.9375 C-40.22344925 475.94877663 -43.03258659 472.82043521 -45.8125 469.59375 C-47.86109094 467.23787042 -49.95953002 464.9324254 -52.0625 462.625 C-55.92089533 458.35088531 -59.56976186 453.94305086 -63.1875 449.46484375 C-65.50636222 446.65684654 -67.88301901 443.91711414 -70.28979492 441.18505859 C-76.64847633 433.95864187 -82.58581376 426.50051854 -88.375 418.8125 C-90.5920778 415.86868411 -92.84108701 412.95476905 -95.125 410.0625 C-103.74791748 399.1418265 -111.83949245 387.92668921 -119.6875 376.4375 C-120.1407666 375.77685547 -120.5940332 375.11621094 -121.06103516 374.43554688 C-144.81801465 339.71731791 -166.22058595 302.42543724 -179.6875 262.4375 C-180.01331055 261.47118652 -180.33912109 260.50487305 -180.67480469 259.50927734 C-186.80287638 241.03593786 -191.718023 221.75487602 -191.92578125 202.1875 C-191.9355751 201.42017548 -191.94536896 200.65285095 -191.95545959 199.86227417 C-192.51127743 144.97707832 -174.70018913 95.64504076 -136.19042969 55.96044922 C-112.02017776 31.46824137 -81.28254713 14.68128441 -48.1875 5.6875 C-47.51420654 5.50098877 -46.84091309 5.31447754 -46.1472168 5.12231445 C-30.92781647 1.20815231 -15.66514715 -0.11753584 0 0 Z " fill="#692FFE" transform="translate(255.6875,-0.4375)"/>
</svg>
